<?xml version="1.0" standalone="no"?><!DOCTYPE svg PUBLIC "-//W3C//DTD SVG 1.1//EN" "http://www.w3.org/Graphics/SVG/1.1/DTD/svg11.dtd"><svg t="1555990848341" class="icon" style="" viewBox="0 0 1024 1024" version="1.1" xmlns="http://www.w3.org/2000/svg" p-id="4906" xmlns:xlink="http://www.w3.org/1999/xlink" width="200" height="200"><defs><style type="text/css"></style></defs><path d="M512 51.2c253.952 0 460.8 206.848 460.8 460.8s-206.848 460.8-460.8 460.8-460.8-206.848-460.8-460.8 206.848-460.8 460.8-460.8m0-51.2C229.376 0 0 229.376 0 512s229.376 512 512 512 512-229.376 512-512S794.624 0 512 0z" fill="" p-id="4907"></path><path d="M512 460.8c-6.656 0-13.312-2.56-17.92-7.68l-153.6-153.6c-10.24-10.24-10.24-26.112 0-36.352s26.112-10.24 36.352 0l153.6 153.6c10.24 10.24 10.24 26.112 0 36.352-5.12 5.12-11.776 7.68-18.432 7.68z" fill="" p-id="4908"></path><path d="M512 460.8c-6.656 0-13.312-2.56-17.92-7.68-10.24-10.24-10.24-26.112 0-36.352l153.6-153.6c10.24-10.24 26.112-10.24 36.352 0s10.24 26.112 0 36.352l-153.6 153.6c-5.12 5.12-11.776 7.68-18.432 7.68z" fill="" p-id="4909"></path><path d="M742.4 486.4H281.6c-14.336 0-25.6-11.264-25.6-25.6s11.264-25.6 25.6-25.6h460.8c14.336 0 25.6 11.264 25.6 25.6s-11.264 25.6-25.6 25.6zM716.8 640H307.2c-14.336 0-25.6-11.264-25.6-25.6s11.264-25.6 25.6-25.6h409.6c14.336 0 25.6 11.264 25.6 25.6s-11.264 25.6-25.6 25.6z" fill="" p-id="4910"></path><path d="M512 819.2c-14.336 0-25.6-11.264-25.6-25.6V435.2c0-14.336 11.264-25.6 25.6-25.6s25.6 11.264 25.6 25.6v358.4c0 14.336-11.264 25.6-25.6 25.6z" fill="" p-id="4911"></path></svg>